<svg id="visual" viewBox="0 0 900 600" width="900" height="600" xmlns="http://www.w3.org/2000/svg" xmlns:xlink="http://www.w3.org/1999/xlink" version="1.1"><path d="M0 235L82 235L82 169L164 169L164 181L245 181L245 85L327 85L327 253L409 253L409 187L491 187L491 211L573 211L573 229L655 229L655 193L736 193L736 145L818 145L818 169L900 169L900 97L900 0L900 0L818 0L818 0L736 0L736 0L655 0L655 0L573 0L573 0L491 0L491 0L409 0L409 0L327 0L327 0L245 0L245 0L164 0L164 0L82 0L82 0L0 0Z" fill="#fcaf3c"></path><path d="M0 313L82 313L82 319L164 319L164 319L245 319L245 265L327 265L327 379L409 379L409 349L491 349L491 331L573 331L573 313L655 313L655 325L736 325L736 355L818 355L818 397L900 397L900 301L900 95L900 167L818 167L818 143L736 143L736 191L655 191L655 227L573 227L573 209L491 209L491 185L409 185L409 251L327 251L327 83L245 83L245 179L164 179L164 167L82 167L82 233L0 233Z" fill="#fc8a40"></path><path d="M0 385L82 385L82 391L164 391L164 379L245 379L245 355L327 355L327 457L409 457L409 415L491 415L491 373L573 373L573 367L655 367L655 391L736 391L736 433L818 433L818 469L900 469L900 355L900 299L900 395L818 395L818 353L736 353L736 323L655 323L655 311L573 311L573 329L491 329L491 347L409 347L409 377L327 377L327 263L245 263L245 317L164 317L164 317L82 317L82 311L0 311Z" fill="#f3664c"></path><path d="M0 481L82 481L82 553L164 553L164 559L245 559L245 481L327 481L327 505L409 505L409 493L491 493L491 535L573 535L573 529L655 529L655 559L736 559L736 505L818 505L818 559L900 559L900 499L900 353L900 467L818 467L818 431L736 431L736 389L655 389L655 365L573 365L573 371L491 371L491 413L409 413L409 455L327 455L327 353L245 353L245 377L164 377L164 389L82 389L82 383L0 383Z" fill="#e1435a"></path><path d="M0 601L82 601L82 601L164 601L164 601L245 601L245 601L327 601L327 601L409 601L409 601L491 601L491 601L573 601L573 601L655 601L655 601L736 601L736 601L818 601L818 601L900 601L900 601L900 497L900 557L818 557L818 503L736 503L736 557L655 557L655 527L573 527L573 533L491 533L491 491L409 491L409 503L327 503L327 479L245 479L245 557L164 557L164 551L82 551L82 479L0 479Z" fill="#c62368"></path></svg>