<svg xmlns="http://www.w3.org/2000/svg" version="1.1" shape-rendering="crispEdges" viewBox="42 42 108 108">
<rect x="90" y="42" width="6" height="6" fill="#000000"/>
<rect x="96" y="42" width="6" height="6" fill="#000000"/>
<rect x="84" y="48" width="6" height="6" fill="#000000"/>
<rect x="90" y="48" width="6" height="6" fill="#FBCA1F"/>
<rect x="96" y="48" width="6" height="6" fill="#FBCA1F"/>
<rect x="102" y="48" width="6" height="6" fill="#000000"/>
<rect x="84" y="54" width="6" height="6" fill="#000000"/>
<rect x="90" y="54" width="6" height="6" fill="#FBCA1F"/>
<rect x="96" y="54" width="6" height="6" fill="#FBCA1F"/>
<rect x="102" y="54" width="6" height="6" fill="#000000"/>
<rect x="84" y="60" width="6" height="6" fill="#000000"/>
<rect x="90" y="60" width="6" height="6" fill="#FBCA1F"/>
<rect x="96" y="60" width="6" height="6" fill="#FBCA1F"/>
<rect x="102" y="60" width="6" height="6" fill="#000000"/>
<rect x="84" y="66" width="6" height="6" fill="#000000"/>
<rect x="90" y="66" width="6" height="6" fill="#FBCA1F"/>
<rect x="96" y="66" width="6" height="6" fill="#FBCA1F"/>
<rect x="102" y="66" width="6" height="6" fill="#000000"/>
<rect x="90" y="72" width="6" height="6" fill="#000000"/>
<rect x="96" y="72" width="6" height="6" fill="#000000"/>
<rect x="48" y="84" width="6" height="6" fill="#000000"/>
<rect x="54" y="84" width="6" height="6" fill="#000000"/>
<rect x="60" y="84" width="6" height="6" fill="#000000"/>
<rect x="66" y="84" width="6" height="6" fill="#000000"/>
<rect x="90" y="84" width="6" height="6" fill="#000000"/>
<rect x="96" y="84" width="6" height="6" fill="#000000"/>
<rect x="120" y="84" width="6" height="6" fill="#000000"/>
<rect x="126" y="84" width="6" height="6" fill="#000000"/>
<rect x="132" y="84" width="6" height="6" fill="#000000"/>
<rect x="138" y="84" width="6" height="6" fill="#000000"/>
<rect x="42" y="90" width="6" height="6" fill="#000000"/>
<rect x="48" y="90" width="6" height="6" fill="#FBCA1F"/>
<rect x="54" y="90" width="6" height="6" fill="#FBCA1F"/>
<rect x="60" y="90" width="6" height="6" fill="#FBCA1F"/>
<rect x="66" y="90" width="6" height="6" fill="#FBCA1F"/>
<rect x="72" y="90" width="6" height="6" fill="#000000"/>
<rect x="84" y="90" width="6" height="6" fill="#000000"/>
<rect x="90" y="90" width="6" height="6" fill="#FBCA1F"/>
<rect x="96" y="90" width="6" height="6" fill="#FBCA1F"/>
<rect x="102" y="90" width="6" height="6" fill="#000000"/>
<rect x="114" y="90" width="6" height="6" fill="#000000"/>
<rect x="120" y="90" width="6" height="6" fill="#FBCA1F"/>
<rect x="126" y="90" width="6" height="6" fill="#FBCA1F"/>
<rect x="132" y="90" width="6" height="6" fill="#FBCA1F"/>
<rect x="138" y="90" width="6" height="6" fill="#FBCA1F"/>
<rect x="144" y="90" width="6" height="6" fill="#000000"/>
<rect x="42" y="96" width="6" height="6" fill="#000000"/>
<rect x="48" y="96" width="6" height="6" fill="#FBCA1F"/>
<rect x="54" y="96" width="6" height="6" fill="#FBCA1F"/>
<rect x="60" y="96" width="6" height="6" fill="#FBCA1F"/>
<rect x="66" y="96" width="6" height="6" fill="#FBCA1F"/>
<rect x="72" y="96" width="6" height="6" fill="#000000"/>
<rect x="84" y="96" width="6" height="6" fill="#000000"/>
<rect x="90" y="96" width="6" height="6" fill="#FBCA1F"/>
<rect x="96" y="96" width="6" height="6" fill="#FBCA1F"/>
<rect x="102" y="96" width="6" height="6" fill="#000000"/>
<rect x="114" y="96" width="6" height="6" fill="#000000"/>
<rect x="120" y="96" width="6" height="6" fill="#FBCA1F"/>
<rect x="126" y="96" width="6" height="6" fill="#FBCA1F"/>
<rect x="132" y="96" width="6" height="6" fill="#FBCA1F"/>
<rect x="138" y="96" width="6" height="6" fill="#FBCA1F"/>
<rect x="144" y="96" width="6" height="6" fill="#000000"/>
<rect x="48" y="102" width="6" height="6" fill="#000000"/>
<rect x="54" y="102" width="6" height="6" fill="#000000"/>
<rect x="60" y="102" width="6" height="6" fill="#000000"/>
<rect x="66" y="102" width="6" height="6" fill="#000000"/>
<rect x="90" y="102" width="6" height="6" fill="#000000"/>
<rect x="96" y="102" width="6" height="6" fill="#000000"/>
<rect x="120" y="102" width="6" height="6" fill="#000000"/>
<rect x="126" y="102" width="6" height="6" fill="#000000"/>
<rect x="132" y="102" width="6" height="6" fill="#000000"/>
<rect x="138" y="102" width="6" height="6" fill="#000000"/>
<rect x="90" y="114" width="6" height="6" fill="#000000"/>
<rect x="96" y="114" width="6" height="6" fill="#000000"/>
<rect x="84" y="120" width="6" height="6" fill="#000000"/>
<rect x="90" y="120" width="6" height="6" fill="#FBCA1F"/>
<rect x="96" y="120" width="6" height="6" fill="#FBCA1F"/>
<rect x="102" y="120" width="6" height="6" fill="#000000"/>
<rect x="84" y="126" width="6" height="6" fill="#000000"/>
<rect x="90" y="126" width="6" height="6" fill="#FBCA1F"/>
<rect x="96" y="126" width="6" height="6" fill="#FBCA1F"/>
<rect x="102" y="126" width="6" height="6" fill="#000000"/>
<rect x="84" y="132" width="6" height="6" fill="#000000"/>
<rect x="90" y="132" width="6" height="6" fill="#FBCA1F"/>
<rect x="96" y="132" width="6" height="6" fill="#FBCA1F"/>
<rect x="102" y="132" width="6" height="6" fill="#000000"/>
<rect x="84" y="138" width="6" height="6" fill="#000000"/>
<rect x="90" y="138" width="6" height="6" fill="#FBCA1F"/>
<rect x="96" y="138" width="6" height="6" fill="#FBCA1F"/>
<rect x="102" y="138" width="6" height="6" fill="#000000"/>
<rect x="90" y="144" width="6" height="6" fill="#000000"/>
<rect x="96" y="144" width="6" height="6" fill="#000000"/>
</svg>