<svg xmlns="http://www.w3.org/2000/svg" version="1.1" shape-rendering="crispEdges" viewBox="36 30 108 132">
<rect x="72" y="30" width="6" height="6" fill="#000000"/>
<rect x="78" y="30" width="6" height="6" fill="#000000"/>
<rect x="66" y="36" width="6" height="6" fill="#000000"/>
<rect x="72" y="36" width="6" height="6" fill="#FBCA1F"/>
<rect x="78" y="36" width="6" height="6" fill="#FBCA1F"/>
<rect x="84" y="36" width="6" height="6" fill="#000000"/>
<rect x="66" y="42" width="6" height="6" fill="#000000"/>
<rect x="72" y="42" width="6" height="6" fill="#FBCA1F"/>
<rect x="78" y="42" width="6" height="6" fill="#FBCA1F"/>
<rect x="84" y="42" width="6" height="6" fill="#000000"/>
<rect x="66" y="48" width="6" height="6" fill="#000000"/>
<rect x="72" y="48" width="6" height="6" fill="#FBCA1F"/>
<rect x="78" y="48" width="6" height="6" fill="#FBCA1F"/>
<rect x="84" y="48" width="6" height="6" fill="#000000"/>
<rect x="66" y="54" width="6" height="6" fill="#000000"/>
<rect x="72" y="54" width="6" height="6" fill="#FBCA1F"/>
<rect x="78" y="54" width="6" height="6" fill="#FBCA1F"/>
<rect x="84" y="54" width="6" height="6" fill="#000000"/>
<rect x="90" y="54" width="6" height="6" fill="#000000"/>
<rect x="96" y="54" width="6" height="6" fill="#000000"/>
<rect x="66" y="60" width="6" height="6" fill="#000000"/>
<rect x="72" y="60" width="6" height="6" fill="#FBCA1F"/>
<rect x="78" y="60" width="6" height="6" fill="#FBCA1F"/>
<rect x="84" y="60" width="6" height="6" fill="#000000"/>
<rect x="90" y="60" width="6" height="6" fill="#FBCA1F"/>
<rect x="96" y="60" width="6" height="6" fill="#FBCA1F"/>
<rect x="102" y="60" width="6" height="6" fill="#000000"/>
<rect x="108" y="60" width="6" height="6" fill="#000000"/>
<rect x="114" y="60" width="6" height="6" fill="#000000"/>
<rect x="66" y="66" width="6" height="6" fill="#000000"/>
<rect x="72" y="66" width="6" height="6" fill="#FBCA1F"/>
<rect x="78" y="66" width="6" height="6" fill="#FBCA1F"/>
<rect x="84" y="66" width="6" height="6" fill="#000000"/>
<rect x="90" y="66" width="6" height="6" fill="#FBCA1F"/>
<rect x="96" y="66" width="6" height="6" fill="#FBCA1F"/>
<rect x="102" y="66" width="6" height="6" fill="#000000"/>
<rect x="108" y="66" width="6" height="6" fill="#FBCA1F"/>
<rect x="114" y="66" width="6" height="6" fill="#FBCA1F"/>
<rect x="120" y="66" width="6" height="6" fill="#000000"/>
<rect x="126" y="66" width="6" height="6" fill="#000000"/>
<rect x="66" y="72" width="6" height="6" fill="#000000"/>
<rect x="72" y="72" width="6" height="6" fill="#FBCA1F"/>
<rect x="78" y="72" width="6" height="6" fill="#FBCA1F"/>
<rect x="84" y="72" width="6" height="6" fill="#000000"/>
<rect x="90" y="72" width="6" height="6" fill="#FBCA1F"/>
<rect x="96" y="72" width="6" height="6" fill="#FBCA1F"/>
<rect x="102" y="72" width="6" height="6" fill="#000000"/>
<rect x="108" y="72" width="6" height="6" fill="#FBCA1F"/>
<rect x="114" y="72" width="6" height="6" fill="#FBCA1F"/>
<rect x="120" y="72" width="6" height="6" fill="#000000"/>
<rect x="126" y="72" width="6" height="6" fill="#FBCA1F"/>
<rect x="132" y="72" width="6" height="6" fill="#000000"/>
<rect x="66" y="78" width="6" height="6" fill="#000000"/>
<rect x="72" y="78" width="6" height="6" fill="#FBCA1F"/>
<rect x="78" y="78" width="6" height="6" fill="#FBCA1F"/>
<rect x="84" y="78" width="6" height="6" fill="#000000"/>
<rect x="90" y="78" width="6" height="6" fill="#FBCA1F"/>
<rect x="96" y="78" width="6" height="6" fill="#FBCA1F"/>
<rect x="102" y="78" width="6" height="6" fill="#000000"/>
<rect x="108" y="78" width="6" height="6" fill="#FBCA1F"/>
<rect x="114" y="78" width="6" height="6" fill="#FBCA1F"/>
<rect x="120" y="78" width="6" height="6" fill="#000000"/>
<rect x="126" y="78" width="6" height="6" fill="#FBCA1F"/>
<rect x="132" y="78" width="6" height="6" fill="#FBCA1F"/>
<rect x="138" y="78" width="6" height="6" fill="#000000"/>
<rect x="36" y="84" width="6" height="6" fill="#000000"/>
<rect x="42" y="84" width="6" height="6" fill="#000000"/>
<rect x="48" y="84" width="6" height="6" fill="#000000"/>
<rect x="66" y="84" width="6" height="6" fill="#000000"/>
<rect x="72" y="84" width="6" height="6" fill="#FBCA1F"/>
<rect x="78" y="84" width="6" height="6" fill="#FBCA1F"/>
<rect x="84" y="84" width="6" height="6" fill="#000000"/>
<rect x="90" y="84" width="6" height="6" fill="#FBCA1F"/>
<rect x="96" y="84" width="6" height="6" fill="#FBCA1F"/>
<rect x="102" y="84" width="6" height="6" fill="#000000"/>
<rect x="108" y="84" width="6" height="6" fill="#FBCA1F"/>
<rect x="114" y="84" width="6" height="6" fill="#FBCA1F"/>
<rect x="120" y="84" width="6" height="6" fill="#000000"/>
<rect x="126" y="84" width="6" height="6" fill="#FBCA1F"/>
<rect x="132" y="84" width="6" height="6" fill="#FBCA1F"/>
<rect x="138" y="84" width="6" height="6" fill="#000000"/>
<rect x="36" y="90" width="6" height="6" fill="#000000"/>
<rect x="42" y="90" width="6" height="6" fill="#FBCA1F"/>
<rect x="48" y="90" width="6" height="6" fill="#FBCA1F"/>
<rect x="54" y="90" width="6" height="6" fill="#000000"/>
<rect x="66" y="90" width="6" height="6" fill="#000000"/>
<rect x="72" y="90" width="6" height="6" fill="#FBCA1F"/>
<rect x="78" y="90" width="6" height="6" fill="#FBCA1F"/>
<rect x="84" y="90" width="6" height="6" fill="#FBCA1F"/>
<rect x="90" y="90" width="6" height="6" fill="#FBCA1F"/>
<rect x="96" y="90" width="6" height="6" fill="#FBCA1F"/>
<rect x="102" y="90" width="6" height="6" fill="#FBCA1F"/>
<rect x="108" y="90" width="6" height="6" fill="#FBCA1F"/>
<rect x="114" y="90" width="6" height="6" fill="#FBCA1F"/>
<rect x="120" y="90" width="6" height="6" fill="#000000"/>
<rect x="126" y="90" width="6" height="6" fill="#FBCA1F"/>
<rect x="132" y="90" width="6" height="6" fill="#FBCA1F"/>
<rect x="138" y="90" width="6" height="6" fill="#000000"/>
<rect x="36" y="96" width="6" height="6" fill="#000000"/>
<rect x="42" y="96" width="6" height="6" fill="#FBCA1F"/>
<rect x="48" y="96" width="6" height="6" fill="#FBCA1F"/>
<rect x="54" y="96" width="6" height="6" fill="#FBCA1F"/>
<rect x="60" y="96" width="6" height="6" fill="#000000"/>
<rect x="66" y="96" width="6" height="6" fill="#000000"/>
<rect x="72" y="96" width="6" height="6" fill="#FBCA1F"/>
<rect x="78" y="96" width="6" height="6" fill="#FBCA1F"/>
<rect x="84" y="96" width="6" height="6" fill="#FBCA1F"/>
<rect x="90" y="96" width="6" height="6" fill="#FBCA1F"/>
<rect x="96" y="96" width="6" height="6" fill="#FBCA1F"/>
<rect x="102" y="96" width="6" height="6" fill="#FBCA1F"/>
<rect x="108" y="96" width="6" height="6" fill="#FBCA1F"/>
<rect x="114" y="96" width="6" height="6" fill="#FBCA1F"/>
<rect x="120" y="96" width="6" height="6" fill="#FBCA1F"/>
<rect x="126" y="96" width="6" height="6" fill="#FBCA1F"/>
<rect x="132" y="96" width="6" height="6" fill="#FBCA1F"/>
<rect x="138" y="96" width="6" height="6" fill="#000000"/>
<rect x="42" y="102" width="6" height="6" fill="#000000"/>
<rect x="48" y="102" width="6" height="6" fill="#FBCA1F"/>
<rect x="54" y="102" width="6" height="6" fill="#FBCA1F"/>
<rect x="60" y="102" width="6" height="6" fill="#FBCA1F"/>
<rect x="66" y="102" width="6" height="6" fill="#000000"/>
<rect x="72" y="102" width="6" height="6" fill="#FBCA1F"/>
<rect x="78" y="102" width="6" height="6" fill="#FBCA1F"/>
<rect x="84" y="102" width="6" height="6" fill="#FBCA1F"/>
<rect x="90" y="102" width="6" height="6" fill="#FBCA1F"/>
<rect x="96" y="102" width="6" height="6" fill="#FBCA1F"/>
<rect x="102" y="102" width="6" height="6" fill="#FBCA1F"/>
<rect x="108" y="102" width="6" height="6" fill="#FBCA1F"/>
<rect x="114" y="102" width="6" height="6" fill="#FBCA1F"/>
<rect x="120" y="102" width="6" height="6" fill="#FBCA1F"/>
<rect x="126" y="102" width="6" height="6" fill="#FBCA1F"/>
<rect x="132" y="102" width="6" height="6" fill="#FBCA1F"/>
<rect x="138" y="102" width="6" height="6" fill="#000000"/>
<rect x="48" y="108" width="6" height="6" fill="#000000"/>
<rect x="54" y="108" width="6" height="6" fill="#FBCA1F"/>
<rect x="60" y="108" width="6" height="6" fill="#FBCA1F"/>
<rect x="66" y="108" width="6" height="6" fill="#FBCA1F"/>
<rect x="72" y="108" width="6" height="6" fill="#FBCA1F"/>
<rect x="78" y="108" width="6" height="6" fill="#FBCA1F"/>
<rect x="84" y="108" width="6" height="6" fill="#FBCA1F"/>
<rect x="90" y="108" width="6" height="6" fill="#FBCA1F"/>
<rect x="96" y="108" width="6" height="6" fill="#FBCA1F"/>
<rect x="102" y="108" width="6" height="6" fill="#FBCA1F"/>
<rect x="108" y="108" width="6" height="6" fill="#FBCA1F"/>
<rect x="114" y="108" width="6" height="6" fill="#FBCA1F"/>
<rect x="120" y="108" width="6" height="6" fill="#FBCA1F"/>
<rect x="126" y="108" width="6" height="6" fill="#FBCA1F"/>
<rect x="132" y="108" width="6" height="6" fill="#FBCA1F"/>
<rect x="138" y="108" width="6" height="6" fill="#000000"/>
<rect x="48" y="114" width="6" height="6" fill="#000000"/>
<rect x="54" y="114" width="6" height="6" fill="#FBCA1F"/>
<rect x="60" y="114" width="6" height="6" fill="#FBCA1F"/>
<rect x="66" y="114" width="6" height="6" fill="#FBCA1F"/>
<rect x="72" y="114" width="6" height="6" fill="#FBCA1F"/>
<rect x="78" y="114" width="6" height="6" fill="#FBCA1F"/>
<rect x="84" y="114" width="6" height="6" fill="#FBCA1F"/>
<rect x="90" y="114" width="6" height="6" fill="#FBCA1F"/>
<rect x="96" y="114" width="6" height="6" fill="#FBCA1F"/>
<rect x="102" y="114" width="6" height="6" fill="#FBCA1F"/>
<rect x="108" y="114" width="6" height="6" fill="#FBCA1F"/>
<rect x="114" y="114" width="6" height="6" fill="#FBCA1F"/>
<rect x="120" y="114" width="6" height="6" fill="#FBCA1F"/>
<rect x="126" y="114" width="6" height="6" fill="#FBCA1F"/>
<rect x="132" y="114" width="6" height="6" fill="#FBCA1F"/>
<rect x="138" y="114" width="6" height="6" fill="#000000"/>
<rect x="54" y="120" width="6" height="6" fill="#000000"/>
<rect x="60" y="120" width="6" height="6" fill="#FBCA1F"/>
<rect x="66" y="120" width="6" height="6" fill="#FBCA1F"/>
<rect x="72" y="120" width="6" height="6" fill="#FBCA1F"/>
<rect x="78" y="120" width="6" height="6" fill="#FBCA1F"/>
<rect x="84" y="120" width="6" height="6" fill="#FBCA1F"/>
<rect x="90" y="120" width="6" height="6" fill="#FBCA1F"/>
<rect x="96" y="120" width="6" height="6" fill="#FBCA1F"/>
<rect x="102" y="120" width="6" height="6" fill="#FBCA1F"/>
<rect x="108" y="120" width="6" height="6" fill="#FBCA1F"/>
<rect x="114" y="120" width="6" height="6" fill="#FBCA1F"/>
<rect x="120" y="120" width="6" height="6" fill="#FBCA1F"/>
<rect x="126" y="120" width="6" height="6" fill="#FBCA1F"/>
<rect x="132" y="120" width="6" height="6" fill="#FBCA1F"/>
<rect x="138" y="120" width="6" height="6" fill="#000000"/>
<rect x="54" y="126" width="6" height="6" fill="#000000"/>
<rect x="60" y="126" width="6" height="6" fill="#FBCA1F"/>
<rect x="66" y="126" width="6" height="6" fill="#FBCA1F"/>
<rect x="72" y="126" width="6" height="6" fill="#FBCA1F"/>
<rect x="78" y="126" width="6" height="6" fill="#FBCA1F"/>
<rect x="84" y="126" width="6" height="6" fill="#FBCA1F"/>
<rect x="90" y="126" width="6" height="6" fill="#FBCA1F"/>
<rect x="96" y="126" width="6" height="6" fill="#FBCA1F"/>
<rect x="102" y="126" width="6" height="6" fill="#FBCA1F"/>
<rect x="108" y="126" width="6" height="6" fill="#FBCA1F"/>
<rect x="114" y="126" width="6" height="6" fill="#FBCA1F"/>
<rect x="120" y="126" width="6" height="6" fill="#FBCA1F"/>
<rect x="126" y="126" width="6" height="6" fill="#FBCA1F"/>
<rect x="132" y="126" width="6" height="6" fill="#000000"/>
<rect x="60" y="132" width="6" height="6" fill="#000000"/>
<rect x="66" y="132" width="6" height="6" fill="#FBCA1F"/>
<rect x="72" y="132" width="6" height="6" fill="#FBCA1F"/>
<rect x="78" y="132" width="6" height="6" fill="#FBCA1F"/>
<rect x="84" y="132" width="6" height="6" fill="#FBCA1F"/>
<rect x="90" y="132" width="6" height="6" fill="#FBCA1F"/>
<rect x="96" y="132" width="6" height="6" fill="#FBCA1F"/>
<rect x="102" y="132" width="6" height="6" fill="#FBCA1F"/>
<rect x="108" y="132" width="6" height="6" fill="#FBCA1F"/>
<rect x="114" y="132" width="6" height="6" fill="#FBCA1F"/>
<rect x="120" y="132" width="6" height="6" fill="#FBCA1F"/>
<rect x="126" y="132" width="6" height="6" fill="#FBCA1F"/>
<rect x="132" y="132" width="6" height="6" fill="#000000"/>
<rect x="60" y="138" width="6" height="6" fill="#000000"/>
<rect x="66" y="138" width="6" height="6" fill="#FBCA1F"/>
<rect x="72" y="138" width="6" height="6" fill="#FBCA1F"/>
<rect x="78" y="138" width="6" height="6" fill="#FBCA1F"/>
<rect x="84" y="138" width="6" height="6" fill="#FBCA1F"/>
<rect x="90" y="138" width="6" height="6" fill="#FBCA1F"/>
<rect x="96" y="138" width="6" height="6" fill="#FBCA1F"/>
<rect x="102" y="138" width="6" height="6" fill="#FBCA1F"/>
<rect x="108" y="138" width="6" height="6" fill="#FBCA1F"/>
<rect x="114" y="138" width="6" height="6" fill="#FBCA1F"/>
<rect x="120" y="138" width="6" height="6" fill="#FBCA1F"/>
<rect x="126" y="138" width="6" height="6" fill="#FBCA1F"/>
<rect x="132" y="138" width="6" height="6" fill="#000000"/>
<rect x="66" y="144" width="6" height="6" fill="#000000"/>
<rect x="72" y="144" width="6" height="6" fill="#FBCA1F"/>
<rect x="78" y="144" width="6" height="6" fill="#FBCA1F"/>
<rect x="84" y="144" width="6" height="6" fill="#FBCA1F"/>
<rect x="90" y="144" width="6" height="6" fill="#FBCA1F"/>
<rect x="96" y="144" width="6" height="6" fill="#FBCA1F"/>
<rect x="102" y="144" width="6" height="6" fill="#FBCA1F"/>
<rect x="108" y="144" width="6" height="6" fill="#FBCA1F"/>
<rect x="114" y="144" width="6" height="6" fill="#FBCA1F"/>
<rect x="120" y="144" width="6" height="6" fill="#FBCA1F"/>
<rect x="126" y="144" width="6" height="6" fill="#000000"/>
<rect x="66" y="150" width="6" height="6" fill="#000000"/>
<rect x="72" y="150" width="6" height="6" fill="#FBCA1F"/>
<rect x="78" y="150" width="6" height="6" fill="#FBCA1F"/>
<rect x="84" y="150" width="6" height="6" fill="#FBCA1F"/>
<rect x="90" y="150" width="6" height="6" fill="#FBCA1F"/>
<rect x="96" y="150" width="6" height="6" fill="#FBCA1F"/>
<rect x="102" y="150" width="6" height="6" fill="#FBCA1F"/>
<rect x="108" y="150" width="6" height="6" fill="#FBCA1F"/>
<rect x="114" y="150" width="6" height="6" fill="#FBCA1F"/>
<rect x="120" y="150" width="6" height="6" fill="#FBCA1F"/>
<rect x="126" y="150" width="6" height="6" fill="#000000"/>
<rect x="66" y="156" width="6" height="6" fill="#000000"/>
<rect x="72" y="156" width="6" height="6" fill="#000000"/>
<rect x="78" y="156" width="6" height="6" fill="#000000"/>
<rect x="84" y="156" width="6" height="6" fill="#000000"/>
<rect x="90" y="156" width="6" height="6" fill="#000000"/>
<rect x="96" y="156" width="6" height="6" fill="#000000"/>
<rect x="102" y="156" width="6" height="6" fill="#000000"/>
<rect x="108" y="156" width="6" height="6" fill="#000000"/>
<rect x="114" y="156" width="6" height="6" fill="#000000"/>
<rect x="120" y="156" width="6" height="6" fill="#000000"/>
<rect x="126" y="156" width="6" height="6" fill="#000000"/>
</svg>